<?xml version="1.0" standalone="no"?>
<!DOCTYPE svg PUBLIC "-//W3C//DTD SVG 20010904//EN"
 "http://www.w3.org/TR/2001/REC-SVG-20010904/DTD/svg10.dtd">
<svg version="1.0" xmlns="http://www.w3.org/2000/svg"
 width="512.000000pt" height="512.000000pt" viewBox="0 0 512.000000 512.000000"
 preserveAspectRatio="xMidYMid meet">
<metadata>
Created by potrace 1.11, written by Peter Selinger 2001-2013
</metadata>
<g transform="translate(0.000000,512.000000) scale(0.100000,-0.100000)"
fill="#000000" stroke="none">
<path d="M1580 3464 c-134 -36 -262 -120 -352 -231 -130 -161 -191 -282 -196
-390 -4 -71 -4 -72 22 -79 34 -8 60 14 93 81 91 181 294 363 533 480 52 25
105 54 117 65 29 25 29 54 1 74 -29 20 -142 20 -218 0z"/>
<path d="M3340 3134 c-14 -2 -50 -9 -80 -15 -138 -28 -257 -133 -191 -169 11
-5 119 -11 248 -13 184 -3 248 -8 334 -25 120 -25 250 -67 326 -105 73 -37
134 -50 152 -32 12 12 11 20 -12 54 -81 122 -294 241 -509 285 -78 16 -227 27
-268 20z"/>
<path d="M1793 2859 c-108 -53 -173 -192 -173 -369 0 -376 304 -531 454 -232
66 133 66 331 0 464 -68 135 -177 188 -281 137z"/>
<path d="M3215 2580 c-184 -24 -318 -87 -350 -165 -15 -34 -6 -104 15 -130 45
-54 118 -59 343 -21 177 30 210 29 356 -11 108 -30 133 -26 168 26 48 71 16
155 -85 220 -117 75 -274 103 -447 81z"/>
<path d="M1885 1599 c-12 -18 5 -93 35 -157 118 -250 348 -411 587 -412 256 0
484 141 597 370 35 70 48 109 49 145 3 67 -16 69 -104 10 -238 -159 -513 -201
-793 -120 -94 27 -225 89 -272 128 -53 44 -87 56 -99 36z"/>
<path d="M2198 313 c7 -3 16 -2 19 1 4 3 -2 6 -13 5 -11 0 -14 -3 -6 -6z"/>
<path d="M2268 303 c7 -3 16 -2 19 1 4 3 -2 6 -13 5 -11 0 -14 -3 -6 -6z"/>
<path d="M2828 303 c7 -3 16 -2 19 1 4 3 -2 6 -13 5 -11 0 -14 -3 -6 -6z"/>
</g>
</svg>
